<svg viewBox="0 0 100 100" fill="none" xmlns="http://www.w3.org/2000/svg">
  <defs>
    <linearGradient id="aegisGrad" x1="0%" y1="0%" x2="100%" y2="100%">
      <stop offset="0%" stopColor="#2563eb" />
      <stop offset="50%" stopColor="#3b82f6" />
      <stop offset="100%" stopColor="#06b6d4" />
    </linearGradient>
    <filter id="aegisGlowFilter" x="-20%" y="-20%" width="140%" height="140%">
      <feGaussianBlur stdDeviation="3" result="blur" />
      <feComposite in="SourceGraphic" in2="blur" operator="over" />
    </filter>
  </defs>
  <circle cx="50" cy="50" r="45" stroke="#475569" strokeWidth="0.5" strokeDasharray="2 4" opacity="0.2" />
  <circle cx="50" cy="50" r="38" stroke="#475569" strokeWidth="0.5" strokeDasharray="1 8" opacity="0.3" />
  <path d="M50 8 L85 24 V58 C85 75 70 88 50 92 C30 88 15 75 15 58 V24 L50 8 Z" stroke="url(#aegisGrad)" strokeWidth="3.5" strokeLinecap="round" strokeLinejoin="round" />
  <path d="M50 15 L78 28 V56 C78 69 66 80 50 84 C34 80 22 69 22 56 V28 L50 15 Z" stroke="#60a5fa" strokeWidth="1" opacity="0.4" strokeDasharray="4 2" />
  <g filter="url(#aegisGlowFilter)">
    <path d="M50 28 L32 58 H41 L50 43 L59 58 H68 L50 28 Z" fill="url(#aegisGrad)" />
    <circle cx="50" cy="48" r="4.5" fill="#ffffff" />
    <circle cx="50" cy="48" r="2" fill="#06b6d4" />
    <path d="M38 52 H62" stroke="url(#aegisGrad)" strokeWidth="2" strokeLinecap="round" opacity="0.8" />
  </g>
  <path d="M46 72 H54" stroke="#94a3b8" strokeWidth="1.5" strokeLinecap="round" opacity="0.6" />
  <circle cx="50" cy="78" r="1.5" fill="url(#aegisGrad)" />
</svg>
